<svg xmlns="http://www.w3.org/2000/svg" width="254.5" height="35" viewBox="0 0 254.5 35"><rect class="svg__rect" x="0" y="0" width="179.81" height="35" fill="#2E3440" data-darkreader-inline-fill="" style="--darkreader-inline-fill:#0a85ac;"/><rect class="svg__rect" x="177.81" y="0" width="76.69" height="35" fill="#5E81AC" data-darkreader-inline-fill="" style="--darkreader-inline-fill:#2272a2;"/><path class="svg__text" d="M15.60 22L13.63 13.47L15.10 13.47L16.43 19.88L18.06 13.47L19.30 13.47L20.91 19.89L22.22 13.47L23.69 13.47L21.72 22L20.31 22L18.68 15.77L17.02 22L15.60 22ZM29.25 22L27.76 22L27.76 13.47L29.25 13.47L29.25 17.02L33.06 17.02L33.06 13.47L34.54 13.47L34.54 22L33.06 22L33.06 18.21L29.25 18.21L29.25 22ZM44.86 22L39.28 22L39.28 13.47L44.81 13.47L44.81 14.66L40.76 14.66L40.76 17.02L44.26 17.02L44.26 18.19L40.76 18.19L40.76 20.82L44.86 20.82L44.86 22ZM50.53 22L49.05 22L49.05 13.47L52.05 13.47Q53.53 13.47 54.33 14.13Q55.13 14.79 55.13 16.05L55.13 16.05Q55.13 16.90 54.72 17.48Q54.31 18.06 53.57 18.37L53.57 18.37L55.48 21.92L55.48 22L53.90 22L52.19 18.71L50.53 18.71L50.53 22ZM50.53 14.66L50.53 17.52L52.06 17.52Q52.81 17.52 53.23 17.15Q53.65 16.77 53.65 16.11L53.65 16.11Q53.65 15.43 53.26 15.05Q52.87 14.68 52.10 14.66L52.10 14.66L50.53 14.66ZM65.11 22L59.53 22L59.53 13.47L65.06 13.47L65.06 14.66L61.01 14.66L61.01 17.02L64.51 17.02L64.51 18.19L61.01 18.19L61.01 20.82L65.11 20.82L65.11 22ZM76.96 14.66L74.32 14.66L74.32 13.47L81.09 13.47L81.09 14.66L78.43 14.66L78.43 22L76.96 22L76.96 14.66ZM84.58 18.00L84.58 18.00L84.58 17.52Q84.58 16.28 85.02 15.32Q85.46 14.37 86.27 13.86Q87.07 13.35 88.12 13.35Q89.16 13.35 89.96 13.85Q90.77 14.35 91.21 15.29Q91.65 16.23 91.65 17.48L91.65 17.48L91.65 17.96Q91.65 19.21 91.22 20.16Q90.79 21.10 89.98 21.61Q89.18 22.12 88.13 22.12L88.13 22.12Q87.09 22.12 86.28 21.61Q85.47 21.10 85.02 20.17Q84.58 19.23 84.58 18.00ZM86.06 17.46L86.06 17.96Q86.06 19.36 86.61 20.13Q87.15 20.90 88.13 20.90L88.13 20.90Q89.11 20.90 89.64 20.15Q90.17 19.40 90.17 17.96L90.17 17.96L90.17 17.51Q90.17 16.09 89.64 15.34Q89.10 14.58 88.12 14.58L88.12 14.58Q87.15 14.58 86.61 15.33Q86.07 16.09 86.06 17.46L86.06 17.46ZM103.58 22L102.10 22L102.10 13.47L107.52 13.47L107.52 14.66L103.58 14.66L103.58 17.20L107.01 17.20L107.01 18.38L103.58 18.38L103.58 22ZM113.24 22L111.76 22L111.76 13.47L113.24 13.47L113.24 22ZM119.53 22L118.05 22L118.05 13.47L119.53 13.47L123.35 19.54L123.35 13.47L124.82 13.47L124.82 22L123.34 22L119.53 15.95L119.53 22ZM132.01 22L129.56 22L129.56 13.47L132.08 13.47Q133.21 13.47 134.09 13.97Q134.96 14.48 135.44 15.40Q135.92 16.33 135.92 17.52L135.92 17.52L135.92 17.95Q135.92 19.16 135.44 20.08Q134.96 21.00 134.06 21.50Q133.17 22 132.01 22L132.01 22ZM131.04 14.66L131.04 20.82L132.01 20.82Q133.17 20.82 133.80 20.09Q134.42 19.36 134.43 17.99L134.43 17.99L134.43 17.52Q134.43 16.13 133.83 15.40Q133.23 14.66 132.08 14.66L132.08 14.66L131.04 14.66ZM147.84 22L146.36 22L146.36 13.47L148.29 13.47L150.75 20.01L153.20 13.47L155.12 13.47L155.12 22L153.64 22L153.64 19.19L153.79 15.43L151.27 22L150.21 22L147.69 15.43L147.84 19.19L147.84 22ZM165.44 22L159.86 22L159.86 13.47L165.39 13.47L165.39 14.66L161.34 14.66L161.34 17.02L164.84 17.02L164.84 18.19L161.34 18.19L161.34 20.82L165.44 20.82L165.44 22Z" fill="#ECEFF4" data-darkreader-inline-fill="" style="--darkreader-inline-fill:#181a1b;"/><path class="svg__text" d="M198.38 22L192.00 22L192.00 13.60L194.38 13.60L194.38 20.11L198.38 20.11L198.38 22ZM205.18 22L202.80 22L202.80 13.60L205.18 13.60L205.18 22ZM212.69 22L210.36 22L210.36 13.60L212.31 13.60L216.02 18.07L216.02 13.60L218.35 13.60L218.35 22L216.40 22L212.69 17.52L212.69 22ZM225.87 22L223.51 22L223.51 13.60L225.87 13.60L225.87 17.09L229.12 13.60L231.73 13.60L228.30 17.32L231.91 22L229.15 22L226.75 18.95L225.87 19.90L225.87 22ZM235.43 21.24L235.43 21.24L236.21 19.49Q236.78 19.86 237.52 20.09Q238.26 20.32 238.98 20.32L238.98 20.32Q240.35 20.32 240.36 19.64L240.36 19.64Q240.36 19.28 239.97 19.11Q239.58 18.93 238.71 18.74L238.71 18.74Q237.76 18.53 237.12 18.30Q236.49 18.06 236.03 17.55Q235.58 17.03 235.58 16.16L235.58 16.16Q235.58 15.39 236.00 14.77Q236.42 14.15 237.25 13.79Q238.09 13.43 239.29 13.43L239.29 13.43Q240.12 13.43 240.93 13.62Q241.73 13.80 242.35 14.17L242.35 14.17L241.62 15.93Q240.41 15.28 239.28 15.28L239.28 15.28Q238.57 15.28 238.25 15.49Q237.93 15.70 237.93 16.04L237.93 16.04Q237.93 16.37 238.31 16.54Q238.70 16.71 239.55 16.89L239.55 16.89Q240.51 17.10 241.14 17.33Q241.77 17.56 242.23 18.07Q242.69 18.58 242.69 19.46L242.69 19.46Q242.69 20.21 242.27 20.83Q241.86 21.44 241.01 21.80Q240.17 22.17 238.97 22.17L238.97 22.17Q237.95 22.17 236.99 21.92Q236.03 21.67 235.43 21.24Z" fill="#ECEFF4" x="190.81" data-darkreader-inline-fill="" style="--darkreader-inline-fill:#181a1b;"/></svg>